<svg width="18" height="18" viewBox="0 0 18 18" fill="none" xmlns="http://www.w3.org/2000/svg">
<g clip-path="url(#clip0_1086_3368)">
<path d="M8.70921 5.07837C9.64495 4.00595 10.4966 3.15432 10.097 2.72322C9.69748 2.29212 3.22993 4.69325 3.59496 5.32017C3.8125 5.69378 9.59068 9.88715 10.1606 10.2243C10.8302 10.6205 11.9054 10.1566 11.8108 9.42065C11.7162 8.68467 10.9381 2.66626 10.9381 2.66626C10.9381 2.66626 11.3797 3.25943 11.5164 3.66946" stroke="#C6B5A4" stroke-width="0.6" stroke-linecap="round" stroke-linejoin="round"/>
<path d="M13.1568 9.94018C13.0622 9.2042 12.2842 3.18579 12.2842 3.18579C12.2842 3.18579 12.7258 3.77897 12.8625 4.18899" stroke="#C6B5A4" stroke-width="0.6" stroke-linecap="round" stroke-linejoin="round"/>
<path d="M10.6438 12.701C10.6438 10.3694 9.86035 5.19702 9.86035 5.19702C9.86035 5.19702 10.302 5.7902 10.4386 6.20022" stroke="#C6B5A4" stroke-width="0.6" stroke-linecap="round" stroke-linejoin="round"/>
<path d="M8.27692 5.4551C8.14023 5.04504 7.69863 4.4519 7.69863 4.4519C7.69863 4.4519 7.92089 7.1549 9.21412 7.69112C5.74672 6.01149 4.09642 11.5077 2.59818 9.89908C1.52917 8.75128 3.4498 7.13915 3.4498 7.13915" stroke="#C6B5A4" stroke-width="0.6" stroke-linecap="round" stroke-linejoin="round"/>
<path d="M14.2181 5.2615C14.0814 4.85144 13.6398 4.2583 13.6398 4.2583C13.6398 4.2583 14.3996 10.9689 14.5615 12.7011C14.6386 13.5264 13.1088 13.9049 12.5411 12.517C11.9733 11.1292 12.4937 10.7349 12.8407 10.7349C13.1877 10.7349 13.7555 11.8915 12.8407 12.4277C11.926 12.9639 10.4015 13.3529 9.93887 13.8891C9.47627 14.4253 8.66669 15.6555 8.13047 15.6555C7.59426 15.6555 6.54287 15.0772 7.74145 12.7011" stroke="#C6B5A4" stroke-width="0.6" stroke-linecap="round" stroke-linejoin="round"/>
<path d="M15.5436 11.6811C15.449 10.4509 14.8076 5.46729 14.8076 5.46729C14.8076 5.46729 15.2492 6.06046 15.3859 6.47049" stroke="#C6B5A4" stroke-width="0.6" stroke-linecap="round" stroke-linejoin="round"/>
<path d="M5.24707 3.35389C5.89368 2.95174 7.22632 2.6994 7.92026 2.15527" stroke="#C6B5A4" stroke-width="0.6" stroke-linecap="round" stroke-linejoin="round"/>
<path d="M3.36786 10.1975C2.5057 11.1449 2.74754 13.069 3.75689 12.7536C4.1338 12.6358 4.58763 11.8518 5.34449 11.5129C6.61446 10.9443 8.23893 10.6544 8.1412 9.74656C8.01505 8.57423 6.89001 7.89233 6.89001 7.89233" stroke="#C6B5A4" stroke-width="0.6" stroke-linecap="round" stroke-linejoin="round"/>
<path d="M9.68182 10.8821C9.14298 10.6442 8.96688 10.3694 8.96688 10.3694C9.40323 11.3447 9.73964 11.9387 9.75018 12.4066C9.76072 12.8745 7.34774 14.3701 6.31211 14.3701C5.10562 14.3701 4.22309 13.5032 4.56577 12.0639" stroke="#C6B5A4" stroke-width="0.6" stroke-linecap="round" stroke-linejoin="round"/>
<path d="M3.80032 5.52539C3.00753 5.89297 2.51591 7.63173 3.12052 7.45627" stroke="#C6B5A4" stroke-width="0.6" stroke-linecap="round" stroke-linejoin="round"/>
<path d="M9 17.0625C13.4528 17.0625 17.0625 13.4528 17.0625 9C17.0625 4.5472 13.4528 0.9375 9 0.9375C4.5472 0.9375 0.9375 4.5472 0.9375 9C0.9375 13.4528 4.5472 17.0625 9 17.0625Z" stroke="#C6B5A4" stroke-width="0.6" stroke-linecap="round" stroke-linejoin="round"/>
</g>
<defs>
<clipPath id="clip0_1086_3368">
<rect width="18" height="18" fill="white"/>
</clipPath>
</defs>
</svg>
