<svg width="20" height="20" viewBox="0 0 20 20" fill="none" xmlns="http://www.w3.org/2000/svg">
<g id="Linear / Messages, Conversation /  Chat Line" clip-path="url(#clip0_717_4349)">
<path id="Vector" d="M10.9054 17.8234L11.5508 18.2054H11.5508L10.9054 17.8234ZM11.3571 17.0602L10.7117 16.6782L11.3571 17.0602ZM8.64251 17.0602L7.99709 17.4422L7.9971 17.4422L8.64251 17.0602ZM9.09426 17.8234L9.73967 17.4414H9.73967L9.09426 17.8234ZM1.98367 13.2615L2.67658 12.9745L2.67658 12.9745L1.98367 13.2615ZM6.49115 15.8265L6.47823 16.5764L6.49115 15.8265ZM4.23866 15.5165L3.95164 16.2094L3.95164 16.2094L4.23866 15.5165ZM18.016 13.2615L18.7089 13.5485V13.5485L18.016 13.2615ZM13.5085 15.8265L13.4956 15.0766L13.5085 15.8265ZM15.761 15.5165L16.048 16.2094L16.048 16.2094L15.761 15.5165ZM16.3436 2.28099L15.9517 2.92047L16.3436 2.28099ZM17.7192 3.65658L18.3587 3.26471V3.26471L17.7192 3.65658ZM3.65609 2.28099L3.26422 1.64151V1.64151L3.65609 2.28099ZM2.2805 3.65658L1.64102 3.26471H1.64102L2.2805 3.65658ZM7.8355 16.0085L8.21257 15.3602L8.21257 15.3602L7.8355 16.0085ZM11.5508 18.2054L12.0025 17.4422L10.7117 16.6782L10.26 17.4414L11.5508 18.2054ZM7.9971 17.4422L8.44884 18.2054L9.73967 17.4414L9.28792 16.6782L7.9971 17.4422ZM10.26 17.4414C10.1477 17.631 9.8519 17.631 9.73967 17.4414L8.44884 18.2054C9.14189 19.3763 10.8577 19.3763 11.5508 18.2054L10.26 17.4414ZM8.74984 2.41699H11.2498V0.916992H8.74984V2.41699ZM17.5832 8.75032V9.58366H19.0832V8.75032H17.5832ZM2.4165 9.58366V8.75032H0.916504V9.58366H2.4165ZM0.916504 9.58366C0.916504 10.5441 0.916098 11.302 0.95789 11.9145C1.00014 12.5338 1.08802 13.059 1.29076 13.5485L2.67658 12.9745C2.56216 12.6983 2.49145 12.3553 2.45441 11.8124C2.41691 11.2628 2.4165 10.5646 2.4165 9.58366H0.916504ZM6.50407 15.0766C5.45786 15.0586 4.93125 14.9916 4.52567 14.8236L3.95164 16.2094C4.64657 16.4972 5.43218 16.5584 6.47823 16.5764L6.50407 15.0766ZM1.29076 13.5485C1.78977 14.7532 2.74692 15.7104 3.95164 16.2094L4.52567 14.8236C3.68849 14.4768 3.02335 13.8117 2.67658 12.9745L1.29076 13.5485ZM17.5832 9.58366C17.5832 10.5646 17.5828 11.2628 17.5453 11.8124C17.5082 12.3553 17.4375 12.6983 17.3231 12.9745L18.7089 13.5485C18.9117 13.059 18.9995 12.5338 19.0418 11.9145C19.0836 11.302 19.0832 10.5441 19.0832 9.58366H17.5832ZM13.5214 16.5764C14.5675 16.5584 15.3531 16.4972 16.048 16.2094L15.474 14.8236C15.0684 14.9916 14.5418 15.0586 13.4956 15.0766L13.5214 16.5764ZM17.3231 12.9745C16.9763 13.8117 16.3112 14.4768 15.474 14.8236L16.048 16.2094C17.2528 15.7104 18.2099 14.7532 18.7089 13.5485L17.3231 12.9745ZM11.2498 2.41699C12.6283 2.41699 13.6095 2.41778 14.3729 2.49037C15.1252 2.5619 15.5884 2.69782 15.9517 2.92047L16.7355 1.64151C16.0968 1.25016 15.377 1.07908 14.5149 0.997109C13.664 0.916201 12.5992 0.916992 11.2498 0.916992V2.41699ZM19.0832 8.75032C19.0832 7.40092 19.084 6.3362 19.0031 5.48525C18.9211 4.62314 18.75 3.90333 18.3587 3.26471L17.0797 4.04845C17.3023 4.41179 17.4383 4.87492 17.5098 5.62723C17.5824 6.3907 17.5832 7.37187 17.5832 8.75032H19.0832ZM15.9517 2.92047C16.4114 3.20219 16.798 3.58872 17.0797 4.04846L18.3587 3.26471C17.9532 2.60314 17.397 2.04692 16.7355 1.64151L15.9517 2.92047ZM8.74984 0.916992C7.40043 0.916992 6.33571 0.916201 5.48476 0.997109C4.62265 1.07908 3.90284 1.25016 3.26422 1.64151L4.04797 2.92047C4.4113 2.69782 4.87443 2.5619 5.62674 2.49037C6.39021 2.41778 7.37139 2.41699 8.74984 2.41699V0.916992ZM2.4165 8.75032C2.4165 7.37187 2.4173 6.3907 2.48989 5.62723C2.56142 4.87492 2.69733 4.41179 2.91998 4.04846L1.64102 3.26471C1.24967 3.90333 1.07859 4.62314 0.996621 5.48525C0.915713 6.3362 0.916504 7.40092 0.916504 8.75032H2.4165ZM3.26422 1.64151C2.60265 2.04692 2.04643 2.60314 1.64102 3.26471L2.91998 4.04846C3.20171 3.58872 3.58824 3.2022 4.04797 2.92047L3.26422 1.64151ZM9.28792 16.6782C9.11993 16.3943 8.96798 16.1361 8.81924 15.932C8.66126 15.7152 8.47472 15.5127 8.21257 15.3602L7.45842 16.6568C7.47769 16.668 7.51945 16.6953 7.60703 16.8155C7.70384 16.9483 7.81469 17.134 7.99709 17.4422L9.28792 16.6782ZM6.47823 16.5764C6.84647 16.5828 7.07144 16.5874 7.24098 16.6062C7.39662 16.6234 7.44163 16.6471 7.45843 16.6568L8.21257 15.3602C7.94795 15.2063 7.6751 15.1451 7.40607 15.1153C7.15095 15.087 6.84446 15.0825 6.50407 15.0766L6.47823 16.5764ZM12.0025 17.4422C12.185 17.134 12.2958 16.9483 12.3926 16.8155C12.4802 16.6953 12.5219 16.668 12.5412 16.6568L11.7871 15.3602C11.5249 15.5127 11.3384 15.7152 11.1804 15.932C11.0317 16.1361 10.8797 16.3943 10.7117 16.6782L12.0025 17.4422ZM13.4956 15.0766C13.1552 15.0825 12.8487 15.087 12.5936 15.1153C12.3245 15.1451 12.0517 15.2063 11.7871 15.3602L12.5412 16.6568C12.558 16.6471 12.603 16.6234 12.7587 16.6062C12.9282 16.5874 13.1532 16.5828 13.5214 16.5764L13.4956 15.0766Z" fill="#363881"/>
<path id="Vector_2" d="M6.6665 7.5H13.3332" stroke="#363881" stroke-width="1.5" stroke-linecap="round"/>
<path id="Vector_3" d="M6.6665 10.417H11.2498" stroke="#363881" stroke-width="1.5" stroke-linecap="round"/>
</g>
<defs>
<clipPath id="clip0_717_4349">
<rect width="20" height="20" fill="white"/>
</clipPath>
</defs>
</svg>
