<svg width="16" height="16" viewBox="0 0 16 16" fill="none" xmlns="http://www.w3.org/2000/svg">
<g id="vuesax/outline/danger">
<g id="danger">
<path id="Vector" d="M8 9.83333C7.72667 9.83333 7.5 9.60667 7.5 9.33333V6C7.5 5.72667 7.72667 5.5 8 5.5C8.27333 5.5 8.5 5.72667 8.5 6V9.33333C8.5 9.60667 8.27333 9.83333 8 9.83333Z" fill="#CACACA"/>
<path id="Vector_2" d="M7.99999 12C7.95999 12 7.91333 11.9933 7.86666 11.9866C7.82666 11.98 7.78666 11.9666 7.74666 11.9466C7.70666 11.9333 7.66666 11.9133 7.62666 11.8866C7.59333 11.86 7.55999 11.8333 7.52666 11.8066C7.40666 11.68 7.33333 11.5066 7.33333 11.3333C7.33333 11.16 7.40666 10.9866 7.52666 10.86C7.55999 10.8333 7.59333 10.8066 7.62666 10.78C7.66666 10.7533 7.70666 10.7333 7.74666 10.72C7.78666 10.7 7.82666 10.6866 7.86666 10.68C7.95333 10.66 8.04666 10.66 8.12666 10.68C8.17333 10.6866 8.21333 10.7 8.25333 10.72C8.29333 10.7333 8.33333 10.7533 8.37333 10.78C8.40666 10.8066 8.44 10.8333 8.47333 10.86C8.59333 10.9866 8.66666 11.16 8.66666 11.3333C8.66666 11.5066 8.59333 11.68 8.47333 11.8066C8.44 11.8333 8.40666 11.86 8.37333 11.8866C8.33333 11.9133 8.29333 11.9333 8.25333 11.9466C8.21333 11.9666 8.17333 11.98 8.12666 11.9866C8.08666 11.9933 8.04 12 7.99999 12Z" fill="#CACACA"/>
<path id="Vector_3" d="M12.04 14.7734H3.96C2.66 14.7734 1.66667 14.3 1.16 13.4467C0.659999 12.5934 0.726666 11.4934 1.36 10.3534L5.4 3.08668C6.06667 1.88668 6.98667 1.22668 8 1.22668C9.01333 1.22668 9.93333 1.88668 10.6 3.08668L14.64 10.36C15.2733 11.5 15.3467 12.5934 14.84 13.4534C14.3333 14.3 13.34 14.7734 12.04 14.7734ZM8 2.22668C7.37333 2.22668 6.76 2.70668 6.27333 3.57335L2.24 10.8467C1.78667 11.66 1.71333 12.4067 2.02667 12.9467C2.34 13.4867 3.03333 13.78 3.96667 13.78H12.0467C12.98 13.78 13.6667 13.4867 13.9867 12.9467C14.3067 12.4067 14.2267 11.6667 13.7733 10.8467L9.72667 3.57335C9.24 2.70668 8.62667 2.22668 8 2.22668Z" fill="#CACACA"/>
</g>
</g>
</svg>
