<svg width="130" height="130" viewBox="0 0 130 130" fill="none" xmlns="http://www.w3.org/2000/svg">
<path d="M83.5451 21.9579L81.0365 24.7453L83.5451 21.9579ZM104.988 41.2569L102.48 44.0443L104.988 41.2569ZM117.459 55.002L114.034 56.5276L114.034 56.5277L117.459 55.002ZM17.346 112.821L19.9977 110.17H19.9977L17.346 112.821ZM112.987 112.821L110.336 110.17L110.336 110.17L112.987 112.821ZM76 115.417H54.3333V122.917H76V115.417ZM14.75 75.834V54.1673H7.25V75.834H14.75ZM115.583 73.4664V75.834H123.083V73.4664H115.583ZM81.0365 24.7453L102.48 44.0443L107.497 38.4696L86.0537 19.1706L81.0365 24.7453ZM123.083 73.4664C123.083 64.2935 123.159 58.5829 120.885 53.4764L114.034 56.5277C115.508 59.8375 115.583 63.631 115.583 73.4664H123.083ZM102.48 44.0443C109.79 50.6238 112.559 53.2178 114.034 56.5276L120.885 53.4764C118.611 48.3699 114.315 44.6059 107.497 38.4696L102.48 44.0443ZM54.4947 14.584C63.0391 14.584 66.3414 14.6419 69.2898 15.7733L71.9768 8.77113C67.4293 7.02609 62.4712 7.08398 54.4947 7.08398V14.584ZM86.0537 19.1706C80.1538 13.8606 76.5238 10.516 71.9768 8.77113L69.2898 15.7733C72.2387 16.9049 74.7179 19.0585 81.0365 24.7453L86.0537 19.1706ZM54.3333 115.417C44.0136 115.417 36.651 115.409 31.0588 114.658C25.5745 113.92 22.3578 112.53 19.9977 110.17L14.6944 115.473C18.6803 119.459 23.7435 121.241 30.0594 122.091C36.2675 122.925 44.2256 122.917 54.3333 122.917V115.417ZM7.25 75.834C7.25 85.9417 7.24204 93.8998 8.07669 100.108C8.92585 106.424 10.7085 111.487 14.6944 115.473L19.9977 110.17C17.6375 107.81 16.2472 104.593 15.5098 99.1085C14.758 93.5164 14.75 86.1538 14.75 75.834H7.25ZM76 122.917C86.1078 122.917 94.0658 122.925 100.274 122.091C106.59 121.241 111.653 119.459 115.639 115.473L110.336 110.17C107.976 112.53 104.759 113.92 99.2746 114.658C93.6824 115.409 86.3198 115.417 76 115.417V122.917ZM115.583 75.834C115.583 86.1538 115.575 93.5164 114.824 99.1085C114.086 104.593 112.696 107.81 110.336 110.17L115.639 115.473C119.625 111.487 121.407 106.424 122.257 100.108C123.091 93.8998 123.083 85.9417 123.083 75.834H115.583ZM14.75 54.1673C14.75 43.8475 14.758 36.485 15.5098 30.8928C16.2472 25.4085 17.6375 22.1918 19.9977 19.8317L14.6944 14.5284C10.7085 18.5142 8.92585 23.5774 8.07669 29.8934C7.24204 36.1015 7.25 44.0596 7.25 54.1673H14.75ZM54.4947 7.08398C44.3328 7.08398 36.3357 7.07609 30.102 7.91038C23.7633 8.75873 18.6832 10.5395 14.6944 14.5284L19.9977 19.8317C22.3549 17.4745 25.5815 16.0823 31.0969 15.3441C36.7173 14.5919 44.1215 14.584 54.4947 14.584V7.08398Z" fill="#C6B5A4"/>
<path d="M70.417 13.541V27.0827C70.417 39.8499 70.417 46.2335 74.3833 50.1998C78.3495 54.166 84.7331 54.166 97.5003 54.166H119.167" stroke="#C6B5A4" stroke-width="7.5"/>
<path d="M75 93.25L91.25 77M91.25 93.25L75 77" stroke="#C6B5A4" stroke-width="2.5" stroke-linecap="round"/>
<path d="M38 93.25L54.25 77M54.25 93.25L38 77" stroke="#C6B5A4" stroke-width="2.5" stroke-linecap="round"/>
</svg>
