<svg width="18" height="18" viewBox="0 0 18 18" fill="none" xmlns="http://www.w3.org/2000/svg">
<path d="M7.08502 11.5479C6.83544 11.363 6.48316 11.4153 6.29816 11.6649C6.11317 11.9145 6.16552 12.2667 6.4151 12.4517C7.14441 12.9923 8.03633 13.3123 9.00006 13.3123C9.96379 13.3123 10.8557 12.9923 11.585 12.4517C11.8346 12.2667 11.8869 11.9145 11.702 11.6649C11.517 11.4153 11.1647 11.363 10.9151 11.5479C10.3688 11.9528 9.70948 12.1873 9.00006 12.1873C8.29063 12.1873 7.63127 11.9528 7.08502 11.5479Z" fill="#959595"/>
<path fill-rule="evenodd" clip-rule="evenodd" d="M9 0.9375C8.45621 0.9375 7.96006 1.08683 7.41696 1.34033C6.89124 1.58571 6.28329 1.94787 5.52138 2.40175L4.42966 3.05207C3.59033 3.55205 2.92151 3.95045 2.41511 4.33143C1.89235 4.72472 1.49999 5.1297 1.2443 5.66304C0.988489 6.19664 0.919155 6.7551 0.941395 7.40688C0.962922 8.03777 1.07329 8.80474 1.21167 9.76642L1.43094 11.2903C1.60898 12.5277 1.75026 13.5096 1.96134 14.2741C2.17892 15.0622 2.48764 15.6877 3.04474 16.1674C3.60138 16.6467 4.26738 16.8611 5.08226 16.9633C5.87366 17.0625 6.8721 17.0625 8.13173 17.0625H9.86825C11.1279 17.0625 12.1263 17.0625 12.9177 16.9633C13.7326 16.8611 14.3986 16.6467 14.9553 16.1674C15.5124 15.6877 15.8211 15.0622 16.0387 14.2741C16.2497 13.5096 16.391 12.5277 16.5691 11.2903L16.7883 9.76639C16.9267 8.80473 17.0371 8.03776 17.0586 7.40688C17.0808 6.7551 17.0115 6.19664 16.7557 5.66304C16.5 5.1297 16.1077 4.72472 15.5849 4.33143C15.0785 3.95045 14.4097 3.55205 13.5703 3.05207L12.4786 2.40175C11.7167 1.94787 11.1088 1.58571 10.583 1.34033C10.0399 1.08683 9.5438 0.9375 9 0.9375ZM6.07169 3.38341C6.86481 2.91095 7.42442 2.57836 7.89278 2.35975C8.34961 2.14652 8.67806 2.0625 9 2.0625C9.32194 2.0625 9.6504 2.14652 10.1072 2.35975C10.5756 2.57836 11.1352 2.91095 11.9283 3.38341L12.9669 4.00211C13.8402 4.52229 14.4564 4.89025 14.9086 5.23043C15.3499 5.56246 15.5916 5.83721 15.7413 6.14938C15.8908 6.46128 15.953 6.82003 15.9343 7.36852C15.9151 7.9309 15.8142 8.63723 15.6702 9.63829L15.4611 11.0913C15.2762 12.3762 15.1441 13.2872 14.9542 13.9747C14.7687 14.6466 14.5454 15.0357 14.2212 15.3149C13.8965 15.5944 13.4757 15.7595 12.7778 15.847C12.0645 15.9365 11.1366 15.9375 9.82956 15.9375H8.17045C6.86343 15.9375 5.93554 15.9365 5.22225 15.847C4.52434 15.7595 4.10347 15.5944 3.77881 15.3149C3.45461 15.0357 3.23128 14.6466 3.04576 13.9747C2.85593 13.2872 2.72378 12.3762 2.5389 11.0913L2.32982 9.63829C2.18578 8.63723 2.08493 7.9309 2.06574 7.36852C2.04703 6.82003 2.10922 6.46128 2.25875 6.14938C2.40841 5.83721 2.65011 5.56246 3.09145 5.23043C3.54361 4.89025 4.15982 4.52229 5.03306 4.00211L6.07169 3.38341Z" fill="#959595"/>
</svg>
