<svg width="24" height="25" viewBox="0 0 24 25" fill="none" xmlns="http://www.w3.org/2000/svg">
<g id="keyboard-arrow-left 1" clip-path="url(#clip0_657_3819)">
<path id="Vector" d="M1.50019 11H16.9732C17.0395 11 17.1031 10.9736 17.15 10.9267C17.1969 10.8798 17.2232 10.8163 17.2232 10.75V7.72196C17.2232 7.5242 17.2819 7.33091 17.3918 7.1665C17.5017 7.00209 17.6578 6.87395 17.8405 6.79828C18.0232 6.72261 18.2243 6.7028 18.4182 6.74137C18.6122 6.77994 18.7903 6.87515 18.9302 7.01495L23.7082 11.793C23.8957 11.9805 24.001 12.2348 24.001 12.5C24.001 12.7651 23.8957 13.0194 23.7082 13.207L18.9302 17.985C18.7427 18.1725 18.4884 18.2779 18.2232 18.278C17.958 18.278 17.7036 18.1726 17.5161 17.9851C17.3285 17.7975 17.2232 17.5432 17.2232 17.278V14.25C17.2232 14.1837 17.1969 14.1201 17.15 14.0732C17.1031 14.0263 17.0395 14 16.9732 14H1.50019C1.10237 14 0.720837 13.8419 0.439531 13.5606C0.158226 13.2793 0.000190735 12.8978 0.000190735 12.5C0.000190735 12.1021 0.158226 11.7206 0.439531 11.4393C0.720837 11.158 1.10237 11 1.50019 11Z" fill="#434343"/>
</g>
<defs>
<clipPath id="clip0_657_3819">
<rect width="24" height="24" fill="white" transform="matrix(-1 0 0 1 24 0.5)"/>
</clipPath>
</defs>
</svg>
