<svg width="130" height="130" viewBox="0 0 130 130" fill="none" xmlns="http://www.w3.org/2000/svg">
<path d="M10.833 86.666C10.833 71.3454 10.833 63.685 15.5925 58.9255C20.352 54.166 28.0124 54.166 43.333 54.166H86.6663C101.987 54.166 109.647 54.166 114.407 58.9255C119.166 63.685 119.166 71.3454 119.166 86.666C119.166 101.987 119.166 109.647 114.407 114.407C109.647 119.166 101.987 119.166 86.6663 119.166H43.333C28.0124 119.166 20.352 119.166 15.5925 114.407C10.833 109.647 10.833 101.987 10.833 86.666Z" stroke="#C6B5A4" stroke-width="7.5"/>
<path d="M32.5 54.1673V43.334C32.5 25.3847 47.0507 10.834 65 10.834C80.1437 10.834 92.8683 21.1915 96.4761 35.209" stroke="#C6B5A4" stroke-width="7.5" stroke-linecap="round"/>
<path d="M43.333 86.666H43.3818M64.9509 86.666H64.9997M86.6176 86.666H86.6663" stroke="#C6B5A4" stroke-width="6" stroke-linecap="round" stroke-linejoin="round"/>
</svg>
