<svg width="18" height="18" viewBox="0 0 18 18" fill="none" xmlns="http://www.w3.org/2000/svg">
<g clip-path="url(#clip0_1331_4487)">
<path d="M4.5 13.487C3.33491 13.4519 2.63999 13.322 2.15901 12.841C1.5 12.182 1.5 11.1213 1.5 9C1.5 6.87868 1.5 5.81802 2.15901 5.15901C2.81802 4.5 3.87868 4.5 6 4.5H12C14.1213 4.5 15.182 4.5 15.841 5.15901C16.5 5.81802 16.5 6.87868 16.5 9C16.5 11.1213 16.5 12.182 15.841 12.841C15.36 13.322 14.6651 13.4519 13.5 13.487" stroke="#C6B5A4" stroke-width="1.5"/>
<path d="M6.75 7.5H4.5" stroke="#C6B5A4" stroke-width="1.5" stroke-linecap="round"/>
<path d="M14.25 11.25L3.75 11.25" stroke="#C6B5A4" stroke-width="1.5" stroke-linecap="round"/>
<path d="M12.841 2.15901L12.3107 2.68934V2.68934L12.841 2.15901ZM5.15901 2.15901L5.68934 2.68934L5.68934 2.68934L5.15901 2.15901ZM5.15901 15.841L5.68934 15.3107H5.68934L5.15901 15.841ZM14.25 11.25C14.25 10.8358 13.9142 10.5 13.5 10.5C13.0858 10.5 12.75 10.8358 12.75 11.25H14.25ZM5.25 11.25C5.25 10.8358 4.91421 10.5 4.5 10.5C4.08579 10.5 3.75 10.8358 3.75 11.25H5.25ZM12.75 12C12.75 13.0819 12.7484 13.8178 12.6743 14.3689C12.6031 14.8985 12.4776 15.1437 12.3107 15.3107L13.3713 16.3713C13.8634 15.8792 14.0674 15.2647 14.1609 14.5688C14.2516 13.8945 14.25 13.0395 14.25 12H12.75ZM9 17.25C10.0395 17.25 10.8945 17.2516 11.5688 17.1609C12.2647 17.0674 12.8792 16.8634 13.3713 16.3713L12.3107 15.3107C12.1437 15.4776 11.8985 15.6031 11.3689 15.6743C10.8178 15.7484 10.0819 15.75 9 15.75V17.25ZM9 2.25C10.0819 2.25 10.8178 2.25159 11.3689 2.32569C11.8985 2.39688 12.1437 2.52241 12.3107 2.68934L13.3713 1.62868C12.8792 1.1366 12.2647 0.932622 11.5688 0.839064C10.8945 0.748407 10.0395 0.75 9 0.75V2.25ZM9 0.75C7.96054 0.75 7.1055 0.748407 6.4312 0.839064C5.73533 0.932622 5.12076 1.1366 4.62868 1.62868L5.68934 2.68934C5.85627 2.52241 6.10153 2.39688 6.63107 2.32569C7.18219 2.25159 7.91814 2.25 9 2.25V0.75ZM3.75 12C3.75 13.0395 3.74841 13.8945 3.83906 14.5688C3.93262 15.2647 4.1366 15.8792 4.62868 16.3713L5.68934 15.3107C5.52241 15.1437 5.39688 14.8985 5.32569 14.3689C5.25159 13.8178 5.25 13.0819 5.25 12H3.75ZM9 15.75C7.91814 15.75 7.18219 15.7484 6.63107 15.6743C6.10153 15.6031 5.85627 15.4776 5.68934 15.3107L4.62868 16.3713C5.12076 16.8634 5.73533 17.0674 6.4312 17.1609C7.1055 17.2516 7.96054 17.25 9 17.25V15.75ZM14.2367 4.47741C14.2019 3.32357 14.083 2.34037 13.3713 1.62868L12.3107 2.68934C12.5609 2.9396 12.7019 3.34626 12.7373 4.52259L14.2367 4.47741ZM5.26265 4.52259C5.29809 3.34626 5.43908 2.9396 5.68934 2.68934L4.62868 1.62868C3.91699 2.34037 3.7981 3.32357 3.76333 4.47741L5.26265 4.52259ZM14.25 12V11.25H12.75V12H14.25ZM5.25 12V11.25H3.75V12H5.25Z" fill="#C6B5A4"/>
<circle cx="12.75" cy="7.5" r="0.75" fill="#C6B5A4"/>
</g>
<defs>
<clipPath id="clip0_1331_4487">
<rect width="18" height="18" fill="white"/>
</clipPath>
</defs>
</svg>
