<svg width="115" height="143" viewBox="0 0 115 143" fill="none" xmlns="http://www.w3.org/2000/svg">
<path d="M9.5835 114.25C9.5835 109.785 9.5835 107.552 10.313 105.791C11.2856 103.443 13.1513 101.577 15.4994 100.604C17.2606 99.875 19.4932 99.875 23.9585 99.875H91.0418C95.5071 99.875 97.7397 99.875 99.5009 100.604C101.849 101.577 103.715 103.443 104.687 105.791C105.417 107.552 105.417 109.785 105.417 114.25C105.417 118.715 105.417 120.948 104.687 122.709C103.715 125.057 101.849 126.923 99.5009 127.896C97.7397 128.625 95.5071 128.625 91.0418 128.625H23.9585C19.4932 128.625 17.2606 128.625 15.4994 127.896C13.1513 126.923 11.2856 125.057 10.313 122.709C9.5835 120.948 9.5835 118.715 9.5835 114.25Z" stroke="#C6B5A4" stroke-width="5.5"/>
<path d="M9.5835 85.5C9.5835 81.0347 9.5835 78.8021 10.313 77.041C11.2856 74.6928 13.1513 72.8271 15.4994 71.8545C17.2606 71.125 19.4932 71.125 23.9585 71.125H91.0418C95.5071 71.125 97.7397 71.125 99.5009 71.8545C101.849 72.8271 103.715 74.6928 104.687 77.041C105.417 78.8021 105.417 81.0347 105.417 85.5C105.417 89.9653 105.417 92.1979 104.687 93.959C103.715 96.3072 101.849 98.1729 99.5009 99.1455C97.7397 99.875 95.5071 99.875 91.0418 99.875H23.9585C19.4932 99.875 17.2606 99.875 15.4994 99.1455C13.1513 98.1729 11.2856 96.3072 10.313 93.959C9.5835 92.1979 9.5835 89.9653 9.5835 85.5Z" stroke="#C6B5A4" stroke-width="5.5"/>
<path d="M9.5835 56.75C9.5835 52.2847 9.5835 50.0521 10.313 48.291C11.2856 45.9428 13.1513 44.0771 15.4994 43.1045C17.2606 42.375 19.4932 42.375 23.9585 42.375H91.0418C95.5071 42.375 97.7397 42.375 99.5009 43.1045C101.849 44.0771 103.715 45.9428 104.687 48.291C105.417 50.0521 105.417 52.2847 105.417 56.75C105.417 61.2153 105.417 63.4479 104.687 65.209C103.715 67.5572 101.849 69.4229 99.5009 70.3955C97.7397 71.125 95.5071 71.125 91.0418 71.125H23.9585C19.4932 71.125 17.2606 71.125 15.4994 70.3955C13.1513 69.4229 11.2856 67.5572 10.313 65.209C9.5835 63.4479 9.5835 61.2153 9.5835 56.75Z" stroke="#C6B5A4" stroke-width="5.5"/>
<circle cx="23.9582" cy="85.5006" r="4.79167" fill="#363881"/>
<circle cx="23.9582" cy="56.7507" r="4.79167" fill="#363881"/>
<circle cx="23.9582" cy="114.251" r="4.79167" fill="#363881"/>
<path d="M45 28L70 3M70 28L45 3" stroke="#363881" stroke-width="5.5" stroke-linecap="round"/>
</svg>
