<svg width="24" height="25" viewBox="0 0 24 25" fill="none" xmlns="http://www.w3.org/2000/svg">
<g id="vuesax/outline/volume-low">
<g id="volume-low">
<path id="Vector" d="M13.8801 21.0906C13.0901 21.0906 12.2201 20.8106 11.3501 20.2606L8.43008 18.4306C8.23008 18.3106 8.00008 18.2406 7.77008 18.2406H6.33008C3.91008 18.2406 2.58008 16.9106 2.58008 14.4906V10.4906C2.58008 8.07059 3.91008 6.74059 6.33008 6.74059H7.76008C7.99008 6.74059 8.22008 6.67059 8.42008 6.55059L11.3401 4.72059C12.8001 3.81059 14.2201 3.64059 15.3401 4.26059C16.4601 4.88059 17.0701 6.17059 17.0701 7.90059V17.0706C17.0701 18.7906 16.4501 20.0906 15.3401 20.7106C14.9001 20.9706 14.4101 21.0906 13.8801 21.0906ZM6.33008 8.25059C4.75008 8.25059 4.08008 8.92059 4.08008 10.5006V14.5006C4.08008 16.0806 4.75008 16.7506 6.33008 16.7506H7.76008C8.28008 16.7506 8.78008 16.8906 9.22008 17.1706L12.1401 19.0006C13.1101 19.6006 14.0101 19.7606 14.6201 19.4206C15.2301 19.0806 15.5801 18.2306 15.5801 17.1006V7.91059C15.5801 6.77059 15.2301 5.92059 14.6201 5.59059C14.0101 5.25059 13.1101 5.40059 12.1401 6.01059L9.22008 7.83059C8.78008 8.11059 8.28008 8.25059 7.76008 8.25059H6.33008Z" fill="#C6B5A4"/>
<path id="Vector_2" d="M19.3304 17.2503C19.1704 17.2503 19.0204 17.2003 18.8804 17.1003C18.5504 16.8503 18.4804 16.3803 18.7304 16.0503C20.3004 13.9603 20.3004 11.0403 18.7304 8.95027C18.4804 8.62027 18.5504 8.15027 18.8804 7.90027C19.2104 7.65027 19.6804 7.72027 19.9304 8.05027C21.9004 10.6703 21.9004 14.3303 19.9304 16.9503C19.7904 17.1503 19.5604 17.2503 19.3304 17.2503Z" fill="#C6B5A4"/>
</g>
</g>
</svg>
